
<svg xmlns="http://www.w3.org/2000/svg" version="1.1" xmlns:xlink="http://www.w3.org/1999/xlink" preserveAspectRatio="none" x="0px" y="0px" width="160px" height="140px" viewBox="0 0 160 140">
<defs>
<g id="Layer1_0_FILL">
<path fill="#CC9933" stroke="none" d="
M 45.5 90.9
L 46.3 93.95 48.1 93.5 69.75 87.75 72.6 86.95 71.8 83.95 45.5 90.9
M 51.1 96.35
L 50.45 96.55 47.25 97.4 48 100.35 74.3 93.4 73.55 90.4 69.9 91.4 69.85 91.4 68.1 91.9 51.1 96.35 Z"/>

<path fill="#00CC33" stroke="none" d="
M 60.7 92.3
Q 57.75 93.2 52.7 93.75 51.4 93.95 50.7 94.15 48.5 94.9 51.1 96.35
L 68.1 91.9
Q 67.65 91.85 67.25 91.8 63.35 91.45 60.7 92.3 Z"/>

<path fill="#FF0000" stroke="none" d="
M 50.45 96.55
L 51.1 96.35
Q 48.5 94.9 50.7 94.15 51.4 93.95 52.7 93.75 57.75 93.2 60.7 92.3 63.35 91.45 67.25 91.8 67.65 91.85 68.1 91.9 68.2 91.7 68.3 91.55 68.4 91.45 68.5 91.35 68.9 90.9 69.5 91.15 69.75 91.15 69.9 91.1 72.55 90.3 69.75 87.75
L 48.1 93.5
Q 48.25 95.5 50.45 96.55 Z"/>

<path fill="#FFFFB0" stroke="none" d="
M 109.6 66.1
L 106.75 64.6
Q 105.95 66.35 104.95 67.25 104.6 66.15 101.3 62.25 100.4 63.15 97.65 62.9 97.5 61.75 98.15 57 97.15 54.65 96.3 52.8
L 90.7 56.6
Q 88.65 51.55 87.25 51.05
L 82.3 55 78.9 50.05 73.1 54.75
Q 71.35 52.35 69.05 51.25 68.7 51.55 68.15 53.05 67.75 54 67.3 55.25 67.25 55.6 67.2 55.95 67.15 56.75 67.2 57.65 67.2 58.15 67.25 58.6 67.25 59.1 67.25 59.5 67.35 61.9 67.4 62.25 67.7 64.45 68.2 67.25 68.25 67.7 68.35 68.15 68.55 68.7 68.65 69.65
L 68.7 69.7
Q 68.7 69.75 68.75 69.9
L 71.65 68.05 68.75 69.9 68.7 69.95
Q 68.55 70.45 65.75 73.1 63.1 75.5 68.45 77.5 68.85 77.65 69.3 77.8 69.5 77.8 69.75 77.7 70.2 77.55 70.7 77.35 73.95 76.1 75.95 73.05 73.95 76.1 70.7 77.35
L 70.8 77.65
Q 71.45 79.75 72.35 81.8
L 79.45 80
Q 85.75 78.05 86.95 82.9 88.15 87.75 78.65 92.9 78.75 93.1 78.95 93.4 81.45 97.35 93.6 96.55 96 95.8 98 94.95 105.3 91.4 107.25 84.5 107.55 83.45 107.7 82.35 109.25 71.65 109.6 66.1
M 70.05 58.5
Q 70.45 60.1 71.1 63.15 70.45 60.1 70.05 58.5
M 77.1 57.6
Q 77.3 59.25 77.95 62.15 77.3 59.25 77.1 57.6 Z"/>

<path fill="#993300" stroke="none" d="
M 109.5 49
Q 108.75 46.7 106.8 44.25 103.25 39.65 100.05 38.45 95.95 36.9 95.15 37.25 94.4 37.65 89 36.95 83.6 36.15 79.5 37.75 75.25 39.4 70.05 44.85 65.65 49.3 66.65 53.5
L 68.15 53.05
Q 68.7 51.55 69.05 51.25 71.35 52.35 73.1 54.75
L 78.9 50.05 82.3 55 87.25 51.05
Q 88.65 51.55 90.7 56.6
L 96.3 52.8
Q 97.15 54.65 98.15 57 97.5 61.75 97.65 62.9 100.4 63.15 101.3 62.25 104.6 66.15 104.95 67.25 105.95 66.35 106.75 64.6 106.8 64.55 106.8 64.5 107.1 63.6 107.35 62.65 108.7 64.7 109.35 65.25 109.55 65.25 109.75 65.35 109.85 65.4 110 65.45 112.5 61.35 111.6 57.65 111.2 55.75 109.5 49 Z"/>
</g>

<g id="Layer0_0_FILL">
<path fill="#FFFF33" fill-opacity="0" stroke="none" d="
M 160 140
L 160 0 0 0 0 140 160 140 Z"/>
</g>

<path id="Layer1_0_1_STROKES" stroke="#000000" stroke-width="1.5" stroke-linejoin="round" stroke-linecap="round" fill="none" d="
M 66.65 53.5
Q 65.65 49.3 70.05 44.85 75.25 39.4 79.5 37.75 83.6 36.15 89 36.95 94.4 37.65 95.15 37.25 95.95 36.9 100.05 38.45 103.25 39.65 106.8 44.25 108.75 46.7 109.5 49 111.2 55.75 111.6 57.65 112.5 61.35 110 65.45 109.85 65.4 109.75 65.35 109.55 65.25 109.35 65.25 108.7 64.7 107.35 62.65 107.1 63.6 106.8 64.5 106.8 64.55 106.75 64.6
M 109.6 66.1
Q 109.25 71.65 107.7 82.35 107.55 83.45 107.25 84.5 105.3 91.4 98 94.95 96 95.8 93.6 96.55 81.45 97.35 78.95 93.4 78.75 93.1 78.65 92.9 88.15 87.75 86.95 82.9 85.75 78.05 79.45 80
L 72.35 81.8
Q 71.45 79.75 70.8 77.65
M 70.7 77.35
Q 70.2 77.55 69.75 77.7 69.5 77.8 69.3 77.8 68.85 77.65 68.45 77.5 63.1 75.5 65.75 73.1 68.55 70.45 68.7 69.95
L 68.75 69.9
Q 68.7 69.75 68.7 69.7
L 68.65 69.65
Q 68.55 68.7 68.35 68.15 68.25 67.7 68.2 67.25 67.7 64.45 67.4 62.25 67.35 61.9 67.25 59.5 67.25 59.1 67.25 58.6 67.2 58.15 67.2 57.65 67.15 56.75 67.2 55.95 67.25 55.6 67.3 55.25 67.75 54 68.15 53.05
M 106.75 64.6
Q 105.95 66.35 104.95 67.25 104.6 66.15 101.3 62.25 100.4 63.15 97.65 62.9 97.5 61.75 98.15 57 97.15 54.65 96.3 52.8
L 90.7 56.6
Q 88.65 51.55 87.25 51.05
L 82.3 55 78.9 50.05 73.1 54.75
Q 71.35 52.35 69.05 51.25 68.7 51.55 68.15 53.05
M 70.05 58.5
Q 70.45 60.1 71.1 63.15
M 77.1 57.6
Q 77.3 59.25 77.95 62.15
M 68.75 69.9
L 71.65 68.05
M 50.45 96.55
L 51.1 96.35
Q 48.5 94.9 50.7 94.15 51.4 93.95 52.7 93.75 57.75 93.2 60.7 92.3 63.35 91.45 67.25 91.8 67.65 91.85 68.1 91.9 68.2 91.7 68.3 91.55 68.4 91.45 68.5 91.35 68.9 90.9 69.5 91.15 69.75 91.15 69.9 91.1 72.55 90.3 69.75 87.75
L 48.1 93.5
Q 48.25 95.5 50.45 96.55
L 47.25 97.4 48 100.35 74.3 93.4 73.55 90.4 69.9 91.4 69.85 91.4 68.1 91.9 51.1 96.35
M 48.1 93.5
L 46.3 93.95 45.5 90.9 71.8 83.95 72.6 86.95 69.75 87.75
M 69.5 91.15
Q 69.7 91.25 69.85 91.4
M 75.95 73.05
Q 73.95 76.1 70.7 77.35"/>
</defs>

<g transform="matrix( 1, 0, 0, 1, 0,0) ">
<use xlink:href="#Layer1_0_FILL"/>

<use xlink:href="#Layer1_0_1_STROKES"/>
</g>

<g transform="matrix( 1, 0, 0, 1, 0,0) ">
<use xlink:href="#Layer0_0_FILL"/>
</g>
</svg>
